<svg id="Capa_1" data-name="Capa 1" xmlns="http://www.w3.org/2000/svg" viewBox="0 0 25 25"><defs><style>.cls-1{fill:#fff;}.cls-2{fill:#267cb5;}.cls-3{fill:#4d4d4d;}</style></defs><title>analitica-web</title><path class="cls-1" d="M19.5,20.5a10,10,0,0,1-5,3l-.16,0c-1.6.41-4.35.27-8.84-3a9.9,9.9,0,0,1-3-7,9.9,9.9,0,0,1,3-7,13.75,13.75,0,0,1,6-3c6.24-1.34,11.19,2.37,12,3a20.44,20.44,0,0,1-1,9,20.07,20.07,0,0,1-2.76,4.72Z" transform="translate(-0.5 -0.5)"/><path class="cls-2" d="M12.53.66a2.24,2.24,0,0,0-.15,1v.89L11,2.82a10.85,10.85,0,0,0-8.57,8.45A10.83,10.83,0,0,0,4,19a3.54,3.54,0,0,1,.76,2.75v1.61H6c1.23,0,1.27,0,1.27-.55,0-.3.06-.51.17-.47a10.6,10.6,0,0,0,10.12.25,10.86,10.86,0,0,0,5.73-8l.15-1,1-.06c.91-.06,1-.11,1-.72A13.69,13.69,0,0,0,24.13,7.5a13.68,13.68,0,0,0-5.6-5.59C16.45.89,13,.17,12.53.66Zm-.15,7.73v4.93l3.52,3.52,3.54,3.54-.93.66a9.7,9.7,0,0,1-9.95.91l-1.17-.59L7.33,19,7.27,16.6H4.76l-.06,1-.06,1-.57-1.21A9.75,9.75,0,0,1,10.58,3.77C12.55,3.28,12.38,2.84,12.38,8.39Zm10.08,5.46a11.58,11.58,0,0,1-2,5.19l-.51.61-2.5-2.35c-1.4-1.29-2.8-2.65-3.14-3l-.64-.66h4.39A20.39,20.39,0,0,1,22.46,13.85Z" transform="translate(-0.5 -0.5)"/><path class="cls-3" d="M9,17v2.54h2.55V14.49H9Z" transform="translate(-0.5 -0.5)"/><path class="cls-3" d="M.5,21.69V25.5H3V17.88H.5Z" transform="translate(-0.5 -0.5)"/><path class="cls-3" d="M4.79,20v3.5H7.36v-7H4.79Z" transform="translate(-0.5 -0.5)"/></svg>