<svg id="Capa_2" data-name="Capa 2" xmlns="http://www.w3.org/2000/svg" viewBox="0 0 25 25"><defs><style>.cls-1{fill:#fff;}</style></defs><title>bell</title><g id="Layer_30" data-name="Layer 30"><path class="cls-1" d="M24.46,22.21H1.54a1,1,0,0,1-1-.84A.7.7,0,0,1,.62,21a12.71,12.71,0,0,0,2-6.67v-2.7c0-4.18,3.7-7.91,8.87-8.5,6.44-.74,12,3.24,12,8.24v2.94a12.71,12.71,0,0,0,2,6.67A.76.76,0,0,1,25,22.11,1.26,1.26,0,0,1,24.46,22.21ZM3.16,20.54H22.84a13.9,13.9,0,0,1-1.51-6.22V11.58c0-3.34-3-6.33-7.1-6.8-5.15-.59-9.57,2.59-9.57,6.6v2.94A13.9,13.9,0,0,1,3.16,20.54Z" transform="translate(-0.51 -0.75)"/><path class="cls-1" d="M13.52,25.75c-2.88,0-5.21-1.87-5.21-4.17a1,1,0,0,1,1-.83,1,1,0,0,1,1,.83,2.28,2.28,0,0,0,.92,1.77,3.81,3.81,0,0,0,4.42,0,1.24,1.24,0,0,1,1.48,0,.72.72,0,0,1,0,1.18A5.93,5.93,0,0,1,13.52,25.75Z" transform="translate(-0.51 -0.75)"/><path class="cls-1" d="M13,4.92a1,1,0,0,1-1-.83V1.58a1,1,0,0,1,1-.83,1,1,0,0,1,1,.83v2.5A1,1,0,0,1,13,4.92Z" transform="translate(-0.51 -0.75)"/></g></svg>