<svg id="Capa_1" data-name="Capa 1" xmlns="http://www.w3.org/2000/svg" viewBox="0 0 25 25"><defs><style>.cls-1{fill:#267cb5;}.cls-2{opacity:0.2;}.cls-3{fill:#231f20;}.cls-4{fill:#fff;}.cls-5{fill:#c75c5c;}.cls-6{fill:#4f5d73;}.cls-7{fill:#e0e0d1;}</style></defs><title>calendario</title><g id="date"><circle class="cls-1" cx="12.5" cy="12.5" r="12.5"/><g class="cls-2"><path class="cls-3" d="M5.19,9.27V19a1.56,1.56,0,0,0,1.56,1.56h12.5A1.56,1.56,0,0,0,20.81,19V9.27Z" transform="translate(-0.5 0.5)"/></g><path class="cls-4" d="M5.19,8.48v9.77a1.56,1.56,0,0,0,1.56,1.56h12.5a1.56,1.56,0,0,0,1.56-1.56V8.48Z" transform="translate(-0.5 0.5)"/><g class="cls-2"><path class="cls-3" d="M19.25,5H6.75A1.56,1.56,0,0,0,5.19,6.53V9.27H20.81V6.53A1.56,1.56,0,0,0,19.25,5Z" transform="translate(-0.5 0.5)"/></g><path class="cls-5" d="M19.25,4.19H6.75A1.56,1.56,0,0,0,5.19,5.75V8.48H20.81V5.75A1.56,1.56,0,0,0,19.25,4.19Z" transform="translate(-0.5 0.5)"/><path class="cls-6" d="M13,18.25a.78.78,0,0,1-.78-.78,8.18,8.18,0,0,1,1.36-4.69H11a.78.78,0,0,1,0-1.56h4.3a.78.78,0,0,1,.45,1.42,6,6,0,0,0-2,4.83A.78.78,0,0,1,13,18.25Z" transform="translate(-0.5 0.5)"/><g class="cls-2"><path class="cls-3" d="M8.31,7.7a.78.78,0,0,1-.78-.78V4.19a.78.78,0,0,1,.78-.78h0a.78.78,0,0,1,.78.78V6.92a.78.78,0,0,1-.78.78Z" transform="translate(-0.5 0.5)"/></g><g class="cls-2"><path class="cls-3" d="M18.08,7.7a.78.78,0,0,1-.78-.78V4.19a.78.78,0,0,1,.78-.78h0a.78.78,0,0,1,.78.78V6.92a.78.78,0,0,1-.78.78Z" transform="translate(-0.5 0.5)"/></g><path class="cls-7" d="M8.31,6.92a.78.78,0,0,1-.78-.78V3.41a.78.78,0,0,1,.78-.78h0a.78.78,0,0,1,.78.78V6.14a.78.78,0,0,1-.78.78Z" transform="translate(-0.5 0.5)"/><path class="cls-7" d="M18.08,6.92a.78.78,0,0,1-.78-.78V3.41a.78.78,0,0,1,.78-.78h0a.78.78,0,0,1,.78.78V6.14a.78.78,0,0,1-.78.78Z" transform="translate(-0.5 0.5)"/></g></svg>