<svg id="Capa_1" data-name="Capa 1" xmlns="http://www.w3.org/2000/svg" viewBox="0 0 26 26"><defs><style>.cls-1{fill:#fff;stroke:#fff;stroke-miterlimit:10;}</style></defs><title>flecha-izq</title><path class="cls-1" d="M20.83,14V12a1.06,1.06,0,0,0-1-1H11.62L14.7,7.84a1,1,0,0,0,0-1.46L13.22,4.89a1.06,1.06,0,0,0-1.46,0L5.86,10.79,4.38,12.27a1.06,1.06,0,0,0,0,1.46l1.48,1.48,5.89,5.89a1.06,1.06,0,0,0,1.46,0l1.48-1.48a1.06,1.06,0,0,0,0-1.46l-3.08-3.08h8.17a1.06,1.06,0,0,0,1-1ZM25,13a12.23,12.23,0,0,1-1.68,6.27,12.44,12.44,0,0,1-4.55,4.55A12.23,12.23,0,0,1,12.5,25.5a12.23,12.23,0,0,1-6.27-1.68,12.44,12.44,0,0,1-4.55-4.55A12.23,12.23,0,0,1,0,13,12.23,12.23,0,0,1,1.68,6.73,12.44,12.44,0,0,1,6.23,2.18,12.23,12.23,0,0,1,12.5.5a12.23,12.23,0,0,1,6.27,1.68,12.44,12.44,0,0,1,4.55,4.55A12.23,12.23,0,0,1,25,13Z" transform="translate(0.5 0)"/></svg>