<svg id="Capa_1" data-name="Capa 1" xmlns="http://www.w3.org/2000/svg" viewBox="0 0 25 25"><defs><style>.cls-1{fill:#267cb5;}.cls-2{fill:#fff;}</style></defs><title>formulario-consultas</title><g id="form"><circle class="cls-1" cx="12.5" cy="12.5" r="12.5"/><rect class="cls-1" x="6.45" y="3.13" width="12.5" height="19.14" rx="0.2" ry="0.2"/><rect class="cls-1" x="6.25" y="2.93" width="12.5" height="19.14" rx="0.2" ry="0.2"/><rect class="cls-1" x="7.23" y="3.91" width="10.94" height="17.58" rx="0.2" ry="0.2"/><rect class="cls-2" x="7.03" y="3.71" width="10.94" height="17.58" rx="0.2" ry="0.2"/><rect class="cls-1" x="9.38" y="5.86" width="6.25" height="0.78" rx="0.2" ry="0.2"/><rect class="cls-1" x="8.01" y="8.2" width="8.98" height="0.78" rx="0.2" ry="0.2"/><rect class="cls-1" x="8.01" y="10.55" width="8.98" height="0.78" rx="0.2" ry="0.2"/><rect class="cls-1" x="8.01" y="12.89" width="8.98" height="0.78" rx="0.2" ry="0.2"/><rect class="cls-1" x="8.01" y="15.23" width="8.98" height="0.78" rx="0.2" ry="0.2"/><rect class="cls-1" x="9.57" y="3.71" width="6.25" height="0.78" rx="0.2" ry="0.2"/><rect class="cls-1" x="9.38" y="3.52" width="6.25" height="0.78" rx="0.2" ry="0.2"/></g></svg>