<svg id="Capa_1" data-name="Capa 1" xmlns="http://www.w3.org/2000/svg" viewBox="0 0 25 25"><defs><style>.cls-1{fill:#267cb5;}.cls-2{fill:#fff;}</style></defs><title>guia-web</title><g id="guide"><circle class="cls-1" cx="12.5" cy="12.5" r="12.5"/><path class="cls-2" d="M21.54,2.81a.57.57,0,0,0-.45-.06L14.82,5.44,9.57,3.19a.41.41,0,0,0-.38,0L4,5.56A.42.42,0,0,0,3.75,6V20.94a.34.34,0,0,0,.25.38.39.39,0,0,0,.25.06.24.24,0,0,0,.19-.06l5-2.44,5.19,2.37a.41.41,0,0,0,.38,0H15l6.39-2.63a.47.47,0,0,0,.32-.44v-15A1.31,1.31,0,0,0,21.54,2.81ZM8.74,17.46l-4,2V6l4-1.83Zm5,1.21-4-1.83V4.8l4,1.76Zm7-.68-6,2.52V5.11l6-2.58Z" transform="translate(0.21 0.25)"/></g></svg>