<svg id="Capa_2" data-name="Capa 2" xmlns="http://www.w3.org/2000/svg" viewBox="0 0 25.24 25"><defs><style>.cls-1{fill:#fff;}</style></defs><title>home-blanco</title><g id="home"><path class="cls-1" d="M25.27,11.95,24,9.7V4.18s-1.7-1.55-2.56-1.12H19.88C19,2.63,18,4.18,18,4.18v.74L14.89,1.8A2.18,2.18,0,0,0,13.33.93a2.18,2.18,0,0,0-1.55.87l-10,10.07a2.09,2.09,0,0,0-.85,1.79A1.56,1.56,0,0,0,2.49,15H4v9.38a1.57,1.57,0,0,0,1.56,1.56H11V18.47A1.5,1.5,0,0,1,12.5,17h3A1.5,1.5,0,0,1,17,18.47v7.46h4.45A1.55,1.55,0,0,0,23,24.38V15h1.53a1.47,1.47,0,0,0,1.59-1.26C26.21,12.89,25.81,12.51,25.27,11.95Z" transform="translate(-0.89 -0.93)"/></g></svg>