<svg id="Capa_1" data-name="Capa 1" xmlns="http://www.w3.org/2000/svg" viewBox="0 0 25 25"><defs><style>.cls-1{fill:#267cb5;}</style></defs><title>home</title><g id="home"><path class="cls-1" d="M25.64,12.44l-2.27-2.26V4.63a1.57,1.57,0,0,0-1.56-1.56H20.25a1.57,1.57,0,0,0-1.56,1.56v.86L15.56,2.37A2.19,2.19,0,0,0,14,1.5a2.19,2.19,0,0,0-1.56.87L2.36,12.44c-.54.56-.94,1-.85,1.79A1.57,1.57,0,0,0,3.1,15.56H4.62v9.38A1.57,1.57,0,0,0,6.19,26.5h4.69V18.69a1.57,1.57,0,0,1,1.56-1.56h3.13a1.57,1.57,0,0,1,1.56,1.56V26.5h4.69a1.57,1.57,0,0,0,1.56-1.56V15.56H24.9a1.57,1.57,0,0,0,1.59-1.33C26.58,13.39,26.18,13,25.64,12.44Z" transform="translate(-1.5 -1.5)"/></g></svg>