<svg id="Capa_1" data-name="Capa 1" xmlns="http://www.w3.org/2000/svg" viewBox="0 0 25 25"><defs><style>.cls-1{fill:#267cb5;}.cls-2{fill:#fff;}.cls-3{fill:#f3eee4;}.cls-4{fill:#e8dcca;}.cls-5{fill:#404a4c;}.cls-6{fill:#695652;}.cls-7{fill:#62bee7;}.cls-8{fill:#30a7bf;}.cls-9{fill:#f7a90b;}.cls-10{fill:#e0e1e5;}.cls-11{fill:#4d5556;}</style></defs><title>citas</title><circle class="cls-1" cx="12.5" cy="12.5" r="12.5"/><path class="cls-2" d="M19.64,21a.83.83,0,0,1-.83.81H6.41A.83.83,0,0,1,5.58,21V5.8A.83.83,0,0,1,6.41,5H9.09V6.55h6.64V5h3.08a.83.83,0,0,1,.83.81Z" transform="translate(-0.5 -0.17)"/><path class="cls-2" d="M14.54,6.55a14.52,14.52,0,0,1-9,8.73V5.83A.82.82,0,0,1,6.37,5H9.09V6.55Z" transform="translate(-0.5 -0.17)"/><path class="cls-2" d="M19.64,12.88v8.48a.82.82,0,0,1-.82.82H12.49A10.55,10.55,0,0,1,19.64,12.88Z" transform="translate(-0.5 -0.17)"/><rect class="cls-2" x="6.64" y="6.38" width="10.94" height="14.06"/><rect class="cls-3" x="6.64" y="20.44" width="10.94" height="0.39"/><rect class="cls-4" x="6.64" y="20.44" width="10.94" height="0.39"/><path class="cls-5" d="M12.53,3.29a.9.9,0,1,0,.9.9A.88.88,0,0,0,12.53,3.29Zm0,1.45a.55.55,0,1,1,.55-.55A.53.53,0,0,1,12.53,4.74Z" transform="translate(-0.5 -0.17)"/><path class="cls-5" d="M13.31,4.2a.9.9,0,0,1-1.8,0H9.09V6.55h6.64V4.2Z" transform="translate(-0.5 -0.17)"/><polygon class="cls-4" points="13.05 20.12 15.55 19.18 13.95 17.58 13.05 20.12"/><polygon class="cls-6" points="13.4 19.14 13.05 20.12 13.98 19.77 13.4 19.14"/><path class="cls-7" d="M14.56,17.63a.62.62,0,0,0-.08.86.59.59,0,0,0,.86-.08l6.33-6.33-.78-.78Z" transform="translate(-0.5 -0.17)"/><path class="cls-8" d="M15.38,18.45a.62.62,0,0,0-.08.86.59.59,0,0,0,.86-.08l6.33-6.33-.78-.78Z" transform="translate(-0.5 -0.17)"/><rect class="cls-6" x="21.64" y="10.84" width="0.39" height="2.27" transform="translate(-2.57 18.78) rotate(-45)"/><path class="cls-9" d="M21.59,10.64,21.2,11l1.6,1.6.39-.39a.36.36,0,0,0,0-.47l-1.13-1.13A.29.29,0,0,0,21.59,10.64Z" transform="translate(-0.5 -0.17)"/><rect class="cls-10" x="7.81" y="8.33" width="0.78" height="0.78"/><rect class="cls-10" x="9.38" y="8.33" width="6.64" height="0.78"/><rect class="cls-10" x="7.81" y="10.29" width="0.78" height="0.78"/><rect class="cls-10" x="9.38" y="10.29" width="6.64" height="0.78"/><rect class="cls-10" x="7.81" y="12.24" width="0.78" height="0.78"/><rect class="cls-10" x="9.38" y="12.24" width="6.64" height="0.78"/><rect class="cls-10" x="7.81" y="14.19" width="0.78" height="0.78"/><rect class="cls-10" x="9.38" y="14.19" width="6.64" height="0.78"/><path class="cls-11" d="M13.39,4.24A.82.82,0,0,1,12.9,5h2a.47.47,0,0,1,.47.39c0,.23-.2.39-.47.39H12.8a.47.47,0,0,0-.47.39c0,.23.2.39.47.39h2.93V4.2H13.39Z" transform="translate(-0.5 -0.17)"/></svg>